<?xml version="1.0"?>
<svg xmlns="http://www.w3.org/2000/svg" width="512" height="512" viewBox="0 0 512 512"><g><path d="M503.75,494.03,485,420.4c-.02-.08-.04-.15-.06-.23a87.824,87.824,0,0,0-66.48-61.94c-.04-.01-.08-.01-.11-.02L400,354.62V152C400,72.6,335.4,8,256,8S112,72.6,112,152V354.62l-18.35,3.59c-.03.01-.07.01-.11.02a87.824,87.824,0,0,0-66.48,61.94c-.02.08-.04.15-.06.23L8.25,494.03A7.99,7.99,0,0,0,16,504H496a7.99,7.99,0,0,0,7.75-9.97ZM128,152a128,128,0,0,1,256,0V351.49l-72-14.08v-21.3c30.17-20.23,56-53.94,56-92.11V160a4.808,4.808,0,0,0-.04-.7,8,8,0,0,0-6.51-8.62c-20.42-3.75-39.28-16.47-51.75-34.9a8,8,0,0,0-12.22-1.24C272.77,138.7,240.99,152,208,152a126.913,126.913,0,0,1-52.7-11.31A8.007,8.007,0,0,0,145.06,144c-.13.22-.24.45-.35.68a8.073,8.073,0,0,0-.71,3.3V224c0,38.17,25.83,71.88,56,92.11v21.3l-72,14.08ZM256,320c-18.19,0-42.4-11.16-61.66-28.42C164.46,264.8,160,237.75,160,224V159.81A143.288,143.288,0,0,0,208,168c34.26,0,67.3-12.66,93.96-35.84A97.385,97.385,0,0,0,352,164.93V224c0,13.75-4.46,40.8-34.34,67.58C298.4,308.84,274.19,320,256,320Zm40,5.38V344c0,15.37-22.44,50.92-40,74.75-17.56-23.83-40-59.38-40-74.75V325.38c13.85,6.81,27.82,10.62,40,10.62S282.15,332.19,296,325.38ZM400,488V456a8,8,0,0,0-16,0v32H128V456a8,8,0,0,0-16,0v32H26.29l16.18-63.54A71.854,71.854,0,0,1,96.79,373.9l104.5-20.44c7.34,30.19,43.83,77.61,48.4,83.46a8,8,0,0,0,12.62,0c4.57-5.85,41.06-53.27,48.4-83.46l104.5,20.44a71.854,71.854,0,0,1,54.32,50.56L485.71,488Z"/><path d="M264,264H248a8,8,0,0,0,0,16h16a8,8,0,0,0,0-16Z"/><circle cx="208" cy="192" r="16"/><circle cx="304" cy="192" r="16"/></g></svg>
